<svg width="2240" height="440" viewBox="0 0 2240 440" fill="none" xmlns="http://www.w3.org/2000/svg">
<path d="M385.182 417.87L246.204 128.925L134.922 358.641H315.036L345.358 417.87H23.3354L219.622 22.0284H272.484L468.77 417.87H385.182Z" fill="#00FFFF"/>
<g filter="url(#filter0_d_3107_3072)">
<path d="M271.17 24.0568L465.435 415.842H386.395L249.742 131.866L246.103 124.361L242.465 131.866L134.517 354.888L131.687 360.669H138.156H313.823L342.124 415.74H26.5698L220.835 24.0568H271.17ZM273.697 20H218.308L20 419.899H348.694L316.249 356.714H138.156L246.204 133.692L383.969 420H472.106L273.697 20Z" fill="#66FFFF"/>
</g>
<path d="M806.763 417.87L689.011 281.156L683.755 274.97H587.634L618.36 213.103H766.333C779.877 213.103 792.208 207.627 802.922 196.876C815.758 183.996 822.328 167.769 822.328 148.6C822.328 129.331 815.758 113.002 802.922 100.122C792.208 89.3712 779.877 83.8946 766.333 83.8946H582.074V417.769H504.045V22.0284H766.333C804.64 22.0284 837.489 35.4159 863.971 61.9879C888.229 86.3286 900.459 115.436 900.459 148.702C900.459 181.765 888.128 210.872 863.971 235.112C841.532 257.627 813.838 270.811 781.696 274.26L777.855 274.665L901.065 417.972H806.763V417.87Z" fill="#00FFFF"/>
<g filter="url(#filter1_d_3107_3072)">
<path d="M766.333 24.0568C785.234 24.0568 802.922 27.4036 818.892 33.8945C834.861 40.3854 849.517 50.3245 862.455 63.4077C874.381 75.3753 883.478 88.6613 889.442 102.759C895.405 116.856 898.437 132.373 898.437 148.702C898.437 164.929 895.405 180.345 889.442 194.442C883.478 208.54 874.381 221.724 862.455 233.692C840.319 255.903 813.029 268.884 781.393 272.231L773.711 273.043L778.765 278.925L896.618 415.842H807.773L690.628 279.838L685.979 274.361L684.766 272.941H682.947H590.969L619.674 215.132H766.333C780.483 215.132 793.32 209.452 804.337 198.296C817.578 185.01 824.35 168.276 824.35 148.6C824.35 128.824 817.578 111.988 804.337 98.7018C793.219 87.5456 780.483 81.8661 766.333 81.8661H584.096H580.053V85.9229V415.74H506.066V24.0568H766.333ZM766.333 20H502.023V419.899H584.096V85.9229H766.333C779.473 85.9229 791.197 91.0953 801.507 101.542C814.04 114.118 820.307 129.838 820.307 148.6C820.307 167.262 814.04 182.779 801.507 195.355C791.096 205.801 779.372 210.974 766.333 210.974H617.147L584.399 276.897H682.846L687.495 282.373L805.853 419.797H905.411L781.797 276.085C814.545 272.637 842.341 259.351 865.285 236.43C890.048 211.582 902.379 182.373 902.379 148.6C902.379 114.625 890.048 85.3144 865.285 60.4665C838.399 33.4888 805.449 20 766.333 20Z" fill="#66FFFF"/>
</g>
<path d="M1256.95 417.87L1203.78 222.84L1235.92 104.888L1285.05 259.047L1367.83 22.0284H1452.73L1318.81 417.87H1256.95ZM1059.95 417.87L924.919 22.0284H1004.36L1088.36 259.25L1155.97 22.0284H1230.87L1121.81 417.87H1059.95Z" fill="#00FFFF"/>
<g filter="url(#filter2_d_3107_3072)">
<path d="M1450 24.0568L1317.49 415.842H1258.46L1205.91 222.738L1236.13 111.886L1281.31 253.773L1284.95 265.335L1288.89 253.874L1369.24 23.9554H1450M1228.24 24.0568L1120.3 415.842H1061.37L927.749 24.0568H1002.95L1084.41 253.976L1088.66 265.943L1092.1 253.773L1157.59 24.0568H1228.24ZM1455.66 20H1366.51L1285.25 252.657L1235.92 97.789L1201.86 222.84L1255.63 419.899H1320.52L1455.66 20ZM1233.6 20H1154.46L1088.15 252.657L1005.78 20H921.988L1058.34 419.899H1123.23L1233.6 20Z" fill="#66FFFF"/>
</g>
<path d="M1577.86 417.87L1609.09 356.004H1831.76L1806.19 417.87H1577.86ZM1487.7 417.87V22.0284H1834.49L1808.92 83.8946H1565.73V417.769H1487.7V417.87ZM1577.86 250.832L1609.09 188.966H1831.76L1806.19 250.832H1577.86Z" fill="#00FFFF"/>
<g filter="url(#filter3_d_3107_3072)">
<path d="M1831.45 24.0568L1807.5 81.8661H1567.75H1563.71V85.9229V415.74H1489.72V24.0568H1831.45ZM1828.73 190.994L1804.77 248.803H1581.09L1610.3 190.994H1828.73ZM1828.73 357.931L1804.77 415.74H1581.09L1610.3 357.931H1828.73ZM1837.52 20H1485.68V419.899H1567.75V85.9229H1810.23L1837.52 20ZM1834.79 186.937H1607.88L1574.62 252.86H1807.6L1834.79 186.937ZM1834.79 353.874H1607.88L1574.62 419.797H1807.6L1834.79 353.874Z" fill="#66FFFF"/>
</g>
<path d="M1853.69 417.87L1879.26 356.004H2086.26C2098.59 356.004 2108.6 353.367 2115.78 348.195C2124.47 342.414 2129.02 331.46 2129.22 315.639C2129.62 293.124 2119.01 276.998 2097.79 267.465C2080.6 259.554 2053.11 252.556 2016.12 246.471C1979.43 240.487 1948.6 231.562 1924.34 219.797C1904.43 210.365 1889.27 197.789 1879.26 182.678C1869.26 167.566 1864.2 149.209 1864.1 128.316C1864.1 96.2678 1876.53 69.8986 1900.99 50.0203C1923.84 31.4605 1952.14 22.0284 1985.09 22.0284H2190.47L2164.9 83.8946H1990.55C1977.51 83.8946 1966.89 88.0528 1959.11 96.2678C1951.33 104.28 1947.39 115.03 1947.39 128.316C1947.39 147.586 1961.44 162.495 1989.13 172.637H1989.23H1989.33C2005.51 176.795 2030.07 181.562 2062.21 186.633C2094.15 191.704 2122.75 199.817 2147.21 210.872C2171.06 221.623 2189.16 235.923 2200.88 253.367C2212.61 270.811 2218.37 292.008 2217.96 316.248C2217.46 350.02 2204.42 376.187 2179.25 394.037C2156.61 409.757 2129.02 417.769 2097.18 417.769H1853.69V417.87Z" fill="#00FFFF"/>
<g filter="url(#filter4_d_3107_3072)">
<path d="M2187.44 24.0568L2163.48 81.8661H1990.55C1976.9 81.8661 1965.78 86.2272 1957.7 94.8479C1949.51 103.266 1945.37 114.523 1945.37 128.316C1945.37 148.499 1959.82 164.118 1988.42 174.564L1988.63 174.665H1988.83C2005.1 178.925 2029.66 183.59 2061.9 188.661C2093.64 193.732 2122.14 201.744 2146.4 212.698C2169.95 223.245 2187.74 237.343 2199.26 254.483C2210.79 271.623 2216.35 292.312 2216.04 316.247C2215.74 332.88 2212.51 347.688 2206.14 360.365C2199.87 372.941 2190.47 383.692 2178.24 392.414C2155.9 407.931 2128.71 415.74 2097.38 415.74H1856.82L1880.78 357.931H2086.26C2099 357.931 2109.31 355.193 2116.89 349.817C2126.19 343.529 2130.94 332.069 2131.14 315.639C2131.54 292.211 2120.53 275.375 2098.49 265.639C2081.11 257.627 2053.52 250.527 2016.32 244.544C1979.83 238.661 1949.21 229.736 1925.05 218.073C1905.44 208.742 1890.58 196.572 1880.78 181.663C1871.08 166.856 1866.02 148.905 1865.92 128.418C1865.92 112.698 1868.95 98.2962 1874.92 85.5173C1880.88 72.8398 1889.98 61.3793 1902 51.643C1924.44 33.3874 1952.34 24.0568 1984.78 24.0568H2187.44ZM2193.5 20H1985.09C1951.43 20 1923.03 29.5335 1899.68 48.499C1874.61 68.9858 1862.08 95.5578 1862.08 128.418C1862.28 171.318 1882.7 202.454 1923.43 221.724C1947.99 233.59 1978.72 242.515 2015.81 248.499C2052.81 254.483 2079.9 261.481 2096.98 269.29C2117.5 278.418 2127.6 293.834 2127.3 315.538C2127.1 330.649 2122.95 340.994 2114.77 346.471C2107.89 351.44 2098.39 353.874 2086.36 353.874H1877.95L1850.66 419.797H2097.28C2129.62 419.797 2157.42 411.785 2180.46 395.761C2206.24 377.505 2219.48 351.034 2219.98 316.349C2220.69 266.755 2196.74 230.953 2148.02 209.047C2123.26 197.89 2094.75 189.777 2062.51 184.706C2030.27 179.635 2006.01 174.97 1989.84 170.71C1962.95 160.872 1949.51 146.673 1949.51 128.316C1949.51 115.538 1953.25 105.294 1960.73 97.6876C1968.21 89.8783 1978.21 85.9229 1990.75 85.9229H2166.42L2193.5 20Z" fill="#66FFFF"/>
</g>
<defs>
<filter id="filter0_d_3107_3072" x="0" y="0" width="492.106" height="440" filterUnits="userSpaceOnUse" color-interpolation-filters="sRGB">
<feFlood flood-opacity="0" result="BackgroundImageFix"/>
<feColorMatrix in="SourceAlpha" type="matrix" values="0 0 0 0 0 0 0 0 0 0 0 0 0 0 0 0 0 0 127 0" result="hardAlpha"/>
<feOffset/>
<feGaussianBlur stdDeviation="10"/>
<feComposite in2="hardAlpha" operator="out"/>
<feColorMatrix type="matrix" values="0 0 0 0 0.4 0 0 0 0 1 0 0 0 0 1 0 0 0 1 0"/>
<feBlend mode="normal" in2="BackgroundImageFix" result="effect1_dropShadow_3107_3072"/>
<feBlend mode="normal" in="SourceGraphic" in2="effect1_dropShadow_3107_3072" result="shape"/>
</filter>
<filter id="filter1_d_3107_3072" x="482.023" y="0" width="443.388" height="439.899" filterUnits="userSpaceOnUse" color-interpolation-filters="sRGB">
<feFlood flood-opacity="0" result="BackgroundImageFix"/>
<feColorMatrix in="SourceAlpha" type="matrix" values="0 0 0 0 0 0 0 0 0 0 0 0 0 0 0 0 0 0 127 0" result="hardAlpha"/>
<feOffset/>
<feGaussianBlur stdDeviation="10"/>
<feComposite in2="hardAlpha" operator="out"/>
<feColorMatrix type="matrix" values="0 0 0 0 0.4 0 0 0 0 1 0 0 0 0 1 0 0 0 1 0"/>
<feBlend mode="normal" in2="BackgroundImageFix" result="effect1_dropShadow_3107_3072"/>
<feBlend mode="normal" in="SourceGraphic" in2="effect1_dropShadow_3107_3072" result="shape"/>
</filter>
<filter id="filter2_d_3107_3072" x="901.988" y="0" width="573.673" height="439.899" filterUnits="userSpaceOnUse" color-interpolation-filters="sRGB">
<feFlood flood-opacity="0" result="BackgroundImageFix"/>
<feColorMatrix in="SourceAlpha" type="matrix" values="0 0 0 0 0 0 0 0 0 0 0 0 0 0 0 0 0 0 127 0" result="hardAlpha"/>
<feOffset/>
<feGaussianBlur stdDeviation="10"/>
<feComposite in2="hardAlpha" operator="out"/>
<feColorMatrix type="matrix" values="0 0 0 0 0.4 0 0 0 0 1 0 0 0 0 1 0 0 0 1 0"/>
<feBlend mode="normal" in2="BackgroundImageFix" result="effect1_dropShadow_3107_3072"/>
<feBlend mode="normal" in="SourceGraphic" in2="effect1_dropShadow_3107_3072" result="shape"/>
</filter>
<filter id="filter3_d_3107_3072" x="1465.68" y="0" width="391.84" height="439.899" filterUnits="userSpaceOnUse" color-interpolation-filters="sRGB">
<feFlood flood-opacity="0" result="BackgroundImageFix"/>
<feColorMatrix in="SourceAlpha" type="matrix" values="0 0 0 0 0 0 0 0 0 0 0 0 0 0 0 0 0 0 127 0" result="hardAlpha"/>
<feOffset/>
<feGaussianBlur stdDeviation="10"/>
<feComposite in2="hardAlpha" operator="out"/>
<feColorMatrix type="matrix" values="0 0 0 0 0.4 0 0 0 0 1 0 0 0 0 1 0 0 0 1 0"/>
<feBlend mode="normal" in2="BackgroundImageFix" result="effect1_dropShadow_3107_3072"/>
<feBlend mode="normal" in="SourceGraphic" in2="effect1_dropShadow_3107_3072" result="shape"/>
</filter>
<filter id="filter4_d_3107_3072" x="1830.66" y="0" width="409.341" height="439.797" filterUnits="userSpaceOnUse" color-interpolation-filters="sRGB">
<feFlood flood-opacity="0" result="BackgroundImageFix"/>
<feColorMatrix in="SourceAlpha" type="matrix" values="0 0 0 0 0 0 0 0 0 0 0 0 0 0 0 0 0 0 127 0" result="hardAlpha"/>
<feOffset/>
<feGaussianBlur stdDeviation="10"/>
<feComposite in2="hardAlpha" operator="out"/>
<feColorMatrix type="matrix" values="0 0 0 0 0.4 0 0 0 0 1 0 0 0 0 1 0 0 0 1 0"/>
<feBlend mode="normal" in2="BackgroundImageFix" result="effect1_dropShadow_3107_3072"/>
<feBlend mode="normal" in="SourceGraphic" in2="effect1_dropShadow_3107_3072" result="shape"/>
</filter>
</defs>
</svg>
